# xmcd CD database file
#
# Track frame offsets:
#	183
#	17263
#	55028
#	88918
#	112173
#	129693
#	166105
#
# Disc length: 2488 seconds
#
# Revision: 3
# Processed by: cddbd v1.5.2PL0 Copyright (c) Steve Scherf et al.
# Submitted via: CDex 1.70beta3
#
DISCID=5209b607
DTITLE=Lucifer's Friend - Where The Groupies Killed The Blues
DYEAR=1972
DGENRE=Hard Rock
TTITLE0=Hobo
TTITLE1=Rose On The Vine
TTITLE2=Mother
TTITLE3=Where The Groupies Killed The Blues
TTITLE4=Prince Of Darkness
TTITLE5=Summerdream
TTITLE6=Burning Ships
EXTD=YEAR: 1972
EXTT0=
EXTT1=
EXTT2=
EXTT3=
EXTT4=
EXTT5=
EXTT6=
PLAYORDER=
